{"title":"White.Irish.Drinkers.2010.BRRip.480p.XviD.Ac3.Feel-Free","uid":6507659,"size":1040362111,"categoryP":"video","categoryS":"movies","magnet":"?xt=urn:btih:2cb97940531b36ac1cfba28ba970ea1b5d512c34&amp;dn=White.Irish.Drinkers.2010.BRRip.480p.XviD.Ac3.Feel-Free&amp;tr=udp%3A%2F%2Ftracker.openbittorrent.com%3A80&amp;tr=udp%3A%2F%2Fopen.demonii.com%3A1337&amp;tr=udp%3A%2F%2Ftracker.coppersurfer.tk%3A6969&amp;tr=udp%3A%2F%2Fexodus.desync.com%3A6969","seeders":1,"leechers":0,"uploader":".BONE.","files":8,"time":1309521179,"description":"Genre:Drama\nLanguage:English\n &lt;a href=&quot;\nhttp://www.imdb.com/title/tt1550524/&quot; rel=&quot;nofollow&quot; target=&quot;_NEW&quot;&gt;\nhttp://www.imdb.com/title/tt1550524/&lt;/a&gt;\n\nSource:720p.BluRay.x264-Japhson Thanks!\n\nFormat : AVI\nFormat/Info : Audio Video Interleave\nFile size : 991 MiB\nDuration : 1h 49mn\nOverall bit rate : 1 263 Kbps\n\nVideo\nID : 0\nFormat : MPEG-4 Visual\nFormat profile : Advanced Simple@L5\nFormat settings, BVOP : Yes\nFormat settings, QPel : No\nFormat settings, GMC : No warppoints\nFormat settings, Matrix : Default (H.263)\nCodec ID : XVID\nCodec ID/Hint : XviD\nDuration : 1h 49mn\nBit rate : 806 Kbps\nWidth : 640 pixels\nHeight : 272 pixels\nDisplay aspect ratio : 2.35:1\nFrame rate : 23.976 fps\nColor space : YUV\nChroma subsampling : 4:2:0\nBit depth : 8 bits\nScan type : Progressive\nBits/(Pixel*Frame) : 0.193\nStream size : 632 MiB (64%)\nWriting library : XviD 1.2.1 (UTC 2008-12-04)\n\nAudio\nID : 1\nFormat : AC-3\nFormat/Info : Audio Coding 3\nMode extension : CM (complete main)\nCodec ID : 2000\nDuration : 1h 49mn\nBit rate mode : Constant\nBit rate : 448 Kbps\nChannel(s) : 6 channels\nChannel positions : Front: L C R, Side: L R, LFE\nSampling rate : 48.0 KHz\nBit depth : 16 bits\nStream size : 352 MiB (35%)\nAlignment : Aligned on interleaves\nInterleave, duration : 42 ms (1.00 video frame)\nInterleave, preload duration : 512 ms\n\n\nPlot:\nBrooklyn, 1975: two brothers looking for a way out of their working-class neighborhood make a pact to rob a local theater on the night of a Rolling Stones concert.\n &lt;a href=&quot;\nhttp://leetleech.org/images/10101462551731782077.png&quot; rel=&quot;nofollow&quot; target=&quot;_NEW&quot;&gt;\nhttp://leetleech.org/images/10101462551731782077.png&lt;/a&gt;\n &lt;a href=&quot;\nhttp://leetleech.org/images/67179270528208863529.png&quot; rel=&quot;nofollow&quot; target=&quot;_NEW&quot;&gt;\nhttp://leetleech.org/images/67179270528208863529.png&lt;/a&gt;\n &lt;a href=&quot;\nhttp://leetleech.org/images/47410780195352425741.png&quot; rel=&quot;nofollow&quot; target=&quot;_NEW&quot;&gt;\nhttp://leetleech.org/images/47410780195352425741.png&lt;/a&gt;\n &lt;a href=&quot;\nhttp://leetleech.org/images/47878324638420239183.png&quot; rel=&quot;nofollow&quot; target=&quot;_NEW&quot;&gt;\nhttp://leetleech.org/images/47878324638420239183.png&lt;/a&gt;\n","torrent":{"xt":"urn:btih:2cb97940531b36ac1cfba28ba970ea1b5d512c34","amp;dn":"White.Irish.Drinkers.2010.BRRip.480p.XviD.Ac3.Feel-Free","amp;tr":["udp%3A%2F%2Ftracker.openbittorrent.com%3A80","udp%3A%2F%2Fopen.demonii.com%3A1337","udp%3A%2F%2Ftracker.coppersurfer.tk%3A6969","udp%3A%2F%2Fexodus.desync.com%3A6969"],"infoHash":"2cb97940531b36ac1cfba28ba970ea1b5d512c34","infoHashBuffer":{"type":"Buffer","data":[44,185,121,64,83,27,54,172,28,251,162,139,169,112,234,27,93,81,44,52]},"announce":[],"urlList":[]}}